<svg width="50" height="50" viewBox="0 0 50 50" xmlns="http://www.w3.org/2000/svg">
  <!-- Morty's head -->
  <circle cx="25" cy="25" r="18" fill="#F4E4BC" stroke="#000" stroke-width="2"/>
  
  <!-- Morty's hair -->
  <path d="M12 12 Q10 8 15 6 Q20 4 25 8 Q30 4 35 6 Q40 8 38 12 Q35 10 30 11 Q25 8 20 11 Q15 10 12 12 Z" fill="#FFD700" stroke="#000" stroke-width="1"/>
  
  <!-- Hair curls -->
  <circle cx="18" cy="10" r="2" fill="#FFD700" stroke="#000" stroke-width="1"/>
  <circle cx="32" cy="10" r="2" fill="#FFD700" stroke="#000" stroke-width="1"/>
  <circle cx="25" cy="8" r="1.5" fill="#FFD700" stroke="#000" stroke-width="1"/>
  
  <!-- Eyes -->
  <ellipse cx="20" cy="20" rx="4" ry="5" fill="white" stroke="#000" stroke-width="1"/>
  <ellipse cx="30" cy="20" rx="4" ry="5" fill="white" stroke="#000" stroke-width="1"/>
  <circle cx="20" cy="21" r="2" fill="#000"/>
  <circle cx="30" cy="21" r="2" fill="#000"/>
  
  <!-- Pupils -->
  <circle cx="20" cy="21" r="0.5" fill="white"/>
  <circle cx="30" cy="21" r="0.5" fill="white"/>
  
  <!-- Worried eyebrows -->
  <path d="M16 15 Q20 13 24 15" stroke="#000" stroke-width="2" fill="none"/>
  <path d="M26 15 Q30 13 34 15" stroke="#000" stroke-width="2" fill="none"/>
  
  <!-- Mouth -->
  <ellipse cx="25" cy="30" rx="3" ry="2" fill="#000"/>
  <ellipse cx="25" cy="30" rx="2" ry="1" fill="#FF69B4"/>
  
  <!-- Yellow shirt -->
  <path d="M8 40 L25 38 L42 40 L45 50 L5 50 Z" fill="#FFD700" stroke="#000" stroke-width="1"/>
  
  <!-- Shirt collar -->
  <path d="M22 38 L25 35 L28 38" stroke="#000" stroke-width="1" fill="none"/>
</svg>
